<?xml version="1.0" encoding="UTF-8"?>
<svg id="Layer_2" data-name="Layer 2" xmlns="http://www.w3.org/2000/svg" viewBox="0 0 174.28 115.69">
  <g id="Layer_1-2" data-name="Layer 1">
    <path d="M109.48,0c-15.25,0-27.62,12.36-27.62,27.62s12.36,27.62,27.62,27.62,27.62-12.36,27.62-27.62S124.73,0,109.48,0ZM119.12,34.73c-3.27,0-5.93-2.65-5.93-5.93s2.65-5.93,5.93-5.93,5.93,2.65,5.93,5.93-2.65,5.93-5.93,5.93Z"/>
    <path d="M135.45,27.62s31.06,12.78,38.82,33.34c0,0-22.32-20.34-39.75-21.71-17.43-1.37.92-11.63.92-11.63Z"/>
    <path d="M54.74,6.21C24.51,6.21,0,30.72,0,60.95s24.51,54.74,54.74,54.74,54.74-24.51,54.74-54.74S84.97,6.21,54.74,6.21ZM63.22,99.44c-.53,1.1-1.4,2.66-2.15,3.65-.09.11.01.2-.3.15-1.21-3.7-3.69-7.11-6.48-10.1-2.23-2.39-4.83-4.47-7.36-6.62-6.44-5.47-13.69-10.56-16.4-18.26-1.92-5.46-1.09-11.51.99-16.86.26-.67.53-1.44.97-2.03.72,9.29,7.09,16.5,14.78,22.65,9.8,7.85,22.37,14.03,15.95,27.41ZM69.88,86.58c-1.38-3.65-3.7-7.03-6.49-10.03-7.83-8.39-21.09-15.03-24.2-25.98-1.09-3.84-.91-7.86.02-11.71.49-2.05,1.37-4.01,1.99-6.02.33-.09.33.22.37.43,1.93,10,6.13,15.13,14.61,22,6.68,5.4,17.51,11.47,17.82,20.08.14,3.92-1.75,7.95-4.12,11.24ZM81.21,66.72c-.44.83-1.08,1.96-1.65,2.71-.08.11.01.2-.3.15-2.88-8.29-10.77-14.21-17.89-19.96l-3.25-2.79c-7.43-6.78-11.5-13.21-9.89-22.82.47-2.8,1.48-5.51,2.55-8.17.44.18.23.72.28,1.07,1.49,9.16,6.99,15.24,14.62,21.42,10.31,8.34,22.94,14.34,15.52,28.41Z"/>
  </g>
</svg>